<svg width="46" height="46" viewBox="0 0 46 46" fill="none" xmlns="http://www.w3.org/2000/svg">
<g clip-path="url(#clip0_16_22)">
<path d="M35.0002 0.0317383H11.0939C5.26905 0.0317383 0.547058 4.75374 0.547058 10.5786V34.4849C0.547058 40.3097 5.26905 45.0317 11.0939 45.0317H35.0002C40.8251 45.0317 45.5471 40.3097 45.5471 34.4849V10.5786C45.5471 4.75374 40.8251 0.0317383 35.0002 0.0317383Z" fill="#0277BD"/>
<path d="M9.99583 18.0759L10.4989 23.6907H23.0639V18.0759H9.99583ZM23.0638 6.71143H8.98456L9.49503 12.3262H23.0638V6.71143ZM23.0638 38.4999V32.6581L23.0391 32.6646L16.7859 30.9763L16.3862 26.4981H10.7498L11.5364 35.3142L23.0379 38.5071L23.0638 38.4999Z" fill="#EBEBEB"/>
<path d="M29.9584 23.6907L29.3066 30.9726L23.0444 32.6629V38.5043L34.5551 35.3142L34.6395 34.3655L35.9589 19.5837L36.0958 18.0759L37.1096 6.71143H23.0444V12.3262H30.9562L30.4454 18.0759H23.0444V23.6907H29.9584Z" fill="white"/>
</g>
<defs>
<clipPath id="clip0_16_22">
<rect width="45" height="45" fill="white" transform="translate(0.547058 0.0317383)"/>
</clipPath>
</defs>
</svg>
