<svg width="46" height="46" viewBox="0 0 46 46" fill="none" xmlns="http://www.w3.org/2000/svg">
<g clip-path="url(#clip0_16_70)">
<path d="M17.336 34.5271C17.336 34.5271 15.6601 35.5023 18.5302 35.8314C22.0079 36.2286 23.785 36.1717 27.6164 35.4475C27.6164 35.4475 28.6257 36.0785 30.0327 36.6255C21.4408 40.3064 10.5884 36.4121 17.336 34.5271ZM16.2855 29.723C16.2855 29.723 14.4054 31.1148 17.278 31.4122C20.9929 31.7958 23.926 31.8271 29.004 30.8497C29.004 30.8497 29.7046 31.5616 30.8082 31.9505C20.4223 34.988 8.85453 32.1895 16.2855 29.723Z" fill="#0074BD"/>
<path d="M25.1353 21.5723C27.2535 24.0104 24.5798 26.2024 24.5798 26.2024C24.5798 26.2024 29.9549 23.4282 27.4869 19.9527C25.181 16.713 23.4133 15.1039 32.9836 9.55347C32.9836 9.55382 17.961 13.3046 25.1353 21.5723Z" fill="#EA2D2E"/>
<path d="M36.4982 38.081C36.4982 38.081 37.7389 39.1041 35.1314 39.8947C30.1736 41.3966 14.4925 41.8494 10.1374 39.9548C8.57258 39.2735 11.5081 38.3289 12.4317 38.1295C13.3946 37.921 13.9445 37.959 13.9445 37.959C12.2032 36.7331 2.68988 40.3672 9.11293 41.4096C26.6281 44.2488 41.0408 40.131 36.4982 38.081ZM18.1428 24.7445C18.1428 24.7445 10.1673 26.6391 15.3187 27.3278C17.4942 27.6189 21.8289 27.5521 25.8695 27.2132C29.1706 26.9358 32.4834 26.3434 32.4834 26.3434C32.4834 26.3434 31.3204 26.8423 30.4781 27.4167C22.3774 29.5475 6.73215 28.5551 11.2367 26.3768C15.0448 24.535 18.1428 24.7445 18.1428 24.7445ZM32.4504 32.7415C40.6843 28.464 36.8769 24.3532 34.2194 24.9069C33.5697 25.0423 33.2783 25.16 33.2783 25.16C33.2783 25.16 33.5202 24.7807 33.9814 24.6176C39.2383 22.7701 43.2806 30.0678 32.2858 32.9584C32.2858 32.9577 32.412 32.8434 32.4504 32.7415Z" fill="#0074BD"/>
<path d="M27.4869 0.589661C27.4869 0.589661 32.046 5.15153 23.1616 12.1642C16.0369 17.7913 21.537 20.9989 23.1592 24.6654C18.9998 20.9131 15.949 17.6095 17.9954 14.5351C21.0006 10.0231 29.3259 7.83466 27.4869 0.589661Z" fill="#EA2D2E"/>
<path d="M18.9521 44.336C26.8538 44.8412 38.9911 44.0548 39.2784 40.3156C39.2784 40.3156 38.7261 41.7331 32.7474 42.8577C26.0023 44.1275 17.6815 43.9795 12.748 43.165C12.748 43.1653 13.7588 44.002 18.9521 44.336Z" fill="#0074BD"/>
</g>
<defs>
<clipPath id="clip0_16_70">
<rect width="45" height="45" fill="white" transform="translate(0.595581 0.0317383)"/>
</clipPath>
</defs>
</svg>
