<svg width="31" height="46" viewBox="0 0 31 46" fill="none" xmlns="http://www.w3.org/2000/svg">
<g clip-path="url(#clip0_23_141)">
<path d="M7.96106 45.762C12.1011 45.762 15.4611 42.402 15.4611 38.262V30.762H7.96106C3.82106 30.762 0.46106 34.122 0.46106 38.262C0.46106 42.402 3.82106 45.762 7.96106 45.762Z" fill="#0ACF83"/>
<path d="M0.46106 23.262C0.46106 19.122 3.82106 15.762 7.96106 15.762H15.4611V30.762H7.96106C3.82106 30.762 0.46106 27.402 0.46106 23.262Z" fill="#A259FF"/>
<path d="M0.46106 8.26196C0.46106 4.12196 3.82106 0.761963 7.96106 0.761963H15.4611V15.762H7.96106C3.82106 15.762 0.46106 12.402 0.46106 8.26196Z" fill="#F24E1E"/>
<path d="M15.4611 0.761963H22.9611C27.1011 0.761963 30.4611 4.12196 30.4611 8.26196C30.4611 12.402 27.1011 15.762 22.9611 15.762H15.4611V0.761963Z" fill="#FF7262"/>
<path d="M30.4611 23.262C30.4611 27.402 27.1011 30.762 22.9611 30.762C18.8211 30.762 15.4611 27.402 15.4611 23.262C15.4611 19.122 18.8211 15.762 22.9611 15.762C27.1011 15.762 30.4611 19.122 30.4611 23.262Z" fill="#1ABCFE"/>
</g>
<defs>
<clipPath id="clip0_23_141">
<rect width="30" height="45" fill="white" transform="translate(0.46106 0.761963)"/>
</clipPath>
</defs>
</svg>
