<svg width="46" height="46" viewBox="0 0 46 46" fill="none" xmlns="http://www.w3.org/2000/svg">
<g clip-path="url(#clip0_16_7)">
<path d="M34.609 0.657959H10.7027C4.87785 0.657959 0.155853 5.37996 0.155853 11.2048V35.1111C0.155853 40.936 4.87785 45.658 10.7027 45.658H34.609C40.4339 45.658 45.1559 40.936 45.1559 35.1111V11.2048C45.1559 5.37996 40.4339 0.657959 34.609 0.657959Z" fill="#E14E1D"/>
<path d="M8.59338 7.33765L10.1069 24.3169H29.5676L28.9146 31.5995L22.6487 33.2937L16.3946 31.602L15.9764 26.9258H10.3406L11.1466 35.9401L22.6474 39.1344L34.1629 35.9401L35.7068 18.7028H15.2421L14.7283 12.953H36.2155L36.7184 7.33765H8.59338Z" fill="white"/>
<path d="M22.6559 7.33765H8.59338L10.1069 24.3169H22.6559V18.7028H15.2421L14.7283 12.953H22.6559V7.33765ZM22.6559 33.2912L22.6487 33.2937L16.3946 31.602L15.9764 26.9258H10.3406L11.1466 35.9401L22.6474 39.1344L22.6561 39.1319L22.6559 33.2912Z" fill="#EBEBEB"/>
</g>
<defs>
<clipPath id="clip0_16_7">
<rect width="45" height="45" fill="white" transform="translate(0.155853 0.657959)"/>
</clipPath>
</defs>
</svg>
