<svg width="46" height="46" viewBox="0 0 46 46" fill="none" xmlns="http://www.w3.org/2000/svg">
<g clip-path="url(#clip0_16_42)">
<path d="M35.0839 0.0317383H11.1776C5.35273 0.0317383 0.630737 4.75374 0.630737 10.5786V34.4849C0.630737 40.3097 5.35273 45.0317 11.1776 45.0317H35.0839C40.9087 45.0317 45.6307 40.3097 45.6307 34.4849V10.5786C45.6307 4.75374 40.9087 0.0317383 35.0839 0.0317383Z" fill="#F0DB4F"/>
<path d="M12.4629 39.7195L15.9065 37.6354C16.571 38.8133 17.1753 39.81 18.625 39.81C20.0145 39.81 20.8906 39.2665 20.8906 37.1522V22.7736H25.1195V37.2119C25.1195 41.5919 22.5521 43.5856 18.8062 43.5856C15.4233 43.5856 13.4596 41.8336 12.4628 39.7191M27.4165 39.2663L30.8597 37.2728C31.7662 38.753 32.9443 39.8404 35.0283 39.8404C36.7807 39.8404 37.898 38.9643 37.898 37.756C37.898 36.3061 36.7501 35.7925 34.8169 34.947L33.7599 34.4937C30.7089 33.195 28.6849 31.5637 28.6849 28.1202C28.6849 24.9484 31.1016 22.5317 34.8775 22.5317C37.5659 22.5317 39.4992 23.4683 40.8885 25.915L37.596 28.0295C36.8709 26.7306 36.0858 26.2172 34.8775 26.2172C33.639 26.2172 32.8536 27.0026 32.8536 28.0295C32.8536 29.2981 33.639 29.8117 35.4513 30.5973L36.5084 31.0503C40.103 32.591 42.1269 34.1614 42.1269 37.6955C42.1269 41.5019 39.1365 43.5859 35.119 43.5859C31.1923 43.5859 28.6549 41.7132 27.4165 39.2663Z" fill="#323330"/>
</g>
<defs>
<clipPath id="clip0_16_42">
<rect width="45" height="45" fill="white" transform="translate(0.630737 0.0317383)"/>
</clipPath>
</defs>
</svg>
