<svg width="46" height="46" viewBox="0 0 46 46" fill="none" xmlns="http://www.w3.org/2000/svg">
<path d="M23.2617 4.33768C21.7774 4.34471 20.3606 4.47092 19.1133 4.69171C15.4395 5.34069 14.7729 6.69913 14.7729 9.20471V12.5133H23.454V13.6161H11.5146C8.99182 13.6161 6.7826 15.1324 6.09143 18.018C5.29408 21.3245 5.25893 23.3882 6.09143 26.8408C6.70842 29.4111 8.18217 31.2421 10.7053 31.2421H13.6904V27.2757C13.6904 24.4101 16.1693 21.8828 19.1137 21.8828H27.7849C30.1988 21.8828 32.1253 19.895 32.1253 17.4714V9.20506C32.1253 6.85206 30.1404 5.08475 27.7849 4.69206C26.2929 4.44385 24.7457 4.331 23.2617 4.33768ZM18.567 6.99866C19.4635 6.99866 20.1961 7.74292 20.1961 8.65839C20.1961 9.56999 19.4638 10.3072 18.567 10.3072C17.667 10.3072 16.9382 9.56999 16.9382 8.65839C16.9378 7.74292 17.667 6.99866 18.567 6.99866Z" fill="url(#paint0_linear_16_53)"/>
<path d="M30.3535 12.7112V16.5665C30.3535 19.5547 27.8194 22.0702 24.9303 22.0702H16.259C13.8838 22.0702 11.9186 24.1033 11.9186 26.4819V34.7489C11.9186 37.1012 13.964 38.4853 16.259 39.16C19.0068 39.9675 21.6421 40.1138 24.9303 39.16C27.1156 38.5268 29.2706 37.2535 29.2706 34.7489V31.44H20.5997V30.3368H33.6117C36.1346 30.3368 37.0753 28.5772 37.9528 25.9356C38.8592 23.2163 38.8201 20.601 37.9528 17.1128C37.3292 14.6009 36.1384 12.7109 33.6117 12.7109L30.3535 12.7112ZM25.4762 33.6457C26.3766 33.6457 27.1054 34.3829 27.1054 35.2953C27.1054 36.21 26.3762 36.9543 25.4762 36.9543C24.5798 36.9543 23.8474 36.21 23.8474 35.2953C23.8474 34.3829 24.5798 33.6457 25.4762 33.6457Z" fill="url(#paint1_linear_16_53)"/>
<path opacity="0.444" d="M35.186 42.0776C35.186 43.3232 29.9773 44.3332 23.5525 44.3332C17.1273 44.3332 11.9186 43.3232 11.9186 42.0776C11.9186 40.832 17.127 39.8216 23.5525 39.8216C29.9773 39.8216 35.186 40.8313 35.186 42.0776Z" fill="url(#paint2_radial_16_53)"/>
<defs>
<linearGradient id="paint0_linear_16_53" x1="4.6099" y1="5.3722" x2="24.6327" y2="22.4475" gradientUnits="userSpaceOnUse">
<stop stop-color="#5A9FD4"/>
<stop offset="1" stop-color="#306998"/>
</linearGradient>
<linearGradient id="paint1_linear_16_53" x1="29.3117" y1="32.157" x2="22.1312" y2="22.0875" gradientUnits="userSpaceOnUse">
<stop stop-color="#FFD43B"/>
<stop offset="1" stop-color="#FFE873"/>
</linearGradient>
<radialGradient id="paint2_radial_16_53" cx="0" cy="0" r="1" gradientUnits="userSpaceOnUse" gradientTransform="translate(23.5055 42.013) rotate(-90) scale(2.25644 9.91894)">
<stop stop-color="#B8B8B8" stop-opacity="0.498"/>
<stop offset="1" stop-color="#7F7F7F" stop-opacity="0"/>
</radialGradient>
</defs>
</svg>
