<svg width="46" height="46" viewBox="0 0 46 46" fill="none" xmlns="http://www.w3.org/2000/svg">
<path d="M22.5153 16.8862C32.9834 16.8862 39.3903 20.5284 39.3903 22.5112C39.3903 24.494 32.9834 28.1362 22.5153 28.1362C12.0471 28.1362 5.64026 24.494 5.64026 22.5112C5.64026 20.5284 12.0471 16.8862 22.5153 16.8862ZM22.5153 14.0737C11.6421 14.0737 2.82776 17.8509 2.82776 22.5112C2.82776 27.1715 11.6421 30.9487 22.5153 30.9487C33.3884 30.9487 42.2028 27.1715 42.2028 22.5112C42.2028 17.8509 33.3884 14.0737 22.5153 14.0737Z" fill="#00BCD4"/>
<path d="M22.5153 19.6987C21.959 19.6987 21.4152 19.8637 20.9527 20.1727C20.4902 20.4818 20.1297 20.921 19.9168 21.4349C19.704 21.9489 19.6483 22.5144 19.7568 23.0599C19.8653 23.6055 20.1332 24.1066 20.5265 24.5C20.9199 24.8933 21.421 25.1612 21.9666 25.2697C22.5121 25.3782 23.0776 25.3225 23.5916 25.1096C24.1055 24.8968 24.5447 24.5363 24.8538 24.0738C25.1628 23.6113 25.3278 23.0675 25.3278 22.5112C25.3278 21.7653 25.0314 21.0499 24.504 20.5225C23.9766 19.995 23.2612 19.6987 22.5153 19.6987Z" fill="#00BCD4"/>
<path d="M14.7218 7.75549C17.5582 7.75549 23.0707 12.2231 27.3865 19.6988C32.6206 28.7649 32.6698 36.1336 30.9528 37.125C30.7547 37.2277 30.533 37.2762 30.3101 37.2657C27.4737 37.2657 21.9598 32.7994 17.644 25.3238C12.4099 16.2577 12.3607 8.88893 14.0778 7.89752C14.2762 7.79458 14.4985 7.74465 14.7218 7.75549ZM14.7204 4.9444C14.0037 4.93143 13.2965 5.10957 12.6715 5.46049C8.63556 7.79065 9.77181 17.3138 15.2084 26.73C19.8265 34.7316 26.0646 40.0796 30.3115 40.0796C31.028 40.0914 31.7347 39.9123 32.359 39.5606C36.3949 37.2319 35.2587 27.7088 29.8221 18.2925C25.204 10.291 18.9659 4.94299 14.719 4.94299L14.7204 4.9444Z" fill="#00BCD4"/>
<path d="M30.3101 7.75546C30.5329 7.74487 30.7547 7.79338 30.9527 7.89608C32.6698 8.8889 32.6206 16.2576 27.3865 25.3237C23.0693 32.7994 17.5568 37.267 14.7204 37.267C14.4975 37.2776 14.2758 37.2291 14.0777 37.1264C12.3607 36.1322 12.4099 28.7634 17.644 19.6987C21.9612 12.2231 27.4737 7.75546 30.3101 7.75546ZM30.3101 4.94296C26.0632 4.94296 19.8265 10.2923 15.207 18.2925C9.77321 27.7087 8.63555 37.2319 12.6715 39.5606C13.2962 39.9125 14.0035 40.0916 14.7204 40.0795C18.9673 40.0795 25.204 34.7301 29.8235 26.73C35.2573 17.3137 36.3949 7.79061 32.359 5.46186C31.7342 5.10996 31.027 4.93085 30.3101 4.94296Z" fill="#00BCD4"/>
</svg>
