<svg width="46" height="46" viewBox="0 0 46 46" fill="none" xmlns="http://www.w3.org/2000/svg">
<g clip-path="url(#clip0_16_100)">
<path d="M45.0046 20.8357L36.1358 5.48887C35.3671 4.15762 33.479 3.06262 31.9358 3.06262H14.2171C12.6796 3.06262 10.784 4.15762 10.0171 5.48887L1.15396 20.8357C0.385205 22.167 0.385205 24.3476 1.15396 25.6807L10.0133 41.0351C10.7821 42.3664 12.6702 43.4614 14.2133 43.4614H31.9415C33.479 43.4614 35.3652 42.3664 36.1415 41.0351L45.0027 25.6789C45.7715 24.3476 45.7715 22.167 45.0027 20.8357H45.0046ZM21.1602 11.5526C21.1602 10.5457 21.9815 9.7245 22.9865 9.7245C23.9915 9.7245 24.8146 10.5457 24.8146 11.5526V22.467C24.7848 22.9311 24.5795 23.3665 24.2403 23.6847C23.901 24.0028 23.4534 24.1799 22.9883 24.1799C22.5233 24.1799 22.0756 24.0028 21.7364 23.6847C21.3972 23.3665 21.1918 22.9311 21.1621 22.467L21.1602 11.5526ZM22.9865 34.8589C19.7016 34.8544 16.5527 33.5473 14.2303 31.2242C11.908 28.9012 10.6018 25.7518 10.5983 22.467C10.6031 20.535 11.0574 18.6306 11.9253 16.9045C12.7932 15.1784 14.0509 13.678 15.599 12.522C15.7704 12.3943 15.9654 12.3016 16.1727 12.2495C16.3801 12.1973 16.5957 12.1866 16.8072 12.2179C17.0187 12.2493 17.2219 12.3221 17.4052 12.4322C17.5885 12.5423 17.7482 12.6875 17.8752 12.8595C18.0028 13.0307 18.0955 13.2253 18.1478 13.4323C18.2001 13.6394 18.2111 13.8547 18.1801 14.0659C18.1491 14.2772 18.0767 14.4802 17.9671 14.6635C17.8575 14.8467 17.7129 15.0066 17.5415 15.1339C15.6631 16.6034 14.4333 18.7488 14.1145 21.1122C13.7957 23.4757 14.413 25.8703 15.8348 27.785C17.2566 29.6997 19.3703 30.9831 21.725 31.3613C24.0797 31.7395 26.489 31.1827 28.439 29.8095C29.5836 28.9579 30.5132 27.8504 31.1536 26.5755C31.7939 25.3006 32.1273 23.8937 32.1271 22.467C32.1229 21.035 31.784 19.6237 31.1374 18.346C30.4909 17.0682 29.5546 15.9592 28.4033 15.1076C28.0568 14.8507 27.8261 14.4669 27.7618 14.0403C27.6975 13.6137 27.8048 13.179 28.0602 12.8314C28.3171 12.4848 28.7009 12.2541 29.1275 12.1898C29.5541 12.1255 29.9888 12.2328 30.3365 12.4882C31.897 13.6427 33.1655 15.1466 34.0404 16.8794C34.9153 18.6122 35.3722 20.5258 35.3746 22.467C35.3721 25.7523 34.0659 28.9023 31.7429 31.2253C29.4198 33.5483 26.2699 34.8545 22.9846 34.857" fill="#1DEA6C"/>
</g>
<defs>
<clipPath id="clip0_16_100">
<rect width="45" height="45" fill="white" transform="translate(0.579285 0.761963)"/>
</clipPath>
</defs>
</svg>
