<svg width="46" height="46" viewBox="0 0 46 46" fill="none" xmlns="http://www.w3.org/2000/svg">
<path d="M12.986 21.4855C16.3445 22.6646 19.887 23.2328 23.4457 23.1631C27.0046 23.2324 30.547 22.6637 33.9054 21.4841C36.5266 20.4617 37.4562 19.3255 37.4562 18.6716V13.6724C36.5395 14.2856 35.5564 14.7932 34.5256 15.1855C30.9725 16.4575 27.2191 17.0778 23.4457 17.0164C19.6727 17.0756 15.9198 16.4564 12.3659 15.1883C11.3344 14.7963 10.3512 14.2877 9.43524 13.6724V18.6646C9.43524 19.3311 10.3676 20.4617 12.986 21.4855ZM12.986 30.9144C14.1723 31.3669 15.3957 31.7155 16.6423 31.9564C18.884 32.3892 21.1626 32.6025 23.4457 32.5935C25.7288 32.603 28.0074 32.3901 30.2491 31.9578C31.4958 31.7169 32.7191 31.3683 33.9054 30.9158C36.5266 29.8935 37.4562 28.7572 37.4562 28.1033V23.3361C36.6987 23.792 35.9025 24.1802 35.0768 24.4963C31.3442 25.8175 27.4046 26.4572 23.4457 26.3849C19.4864 26.455 15.5468 25.8129 11.8146 24.4892C10.9898 24.1712 10.1938 23.7831 9.43524 23.3291V28.1005C9.43524 28.7558 10.3676 29.8878 12.986 30.9144ZM23.4457 42.2192C31.1801 42.2192 37.4562 39.7667 37.4562 36.7433V32.7538C36.767 33.1692 36.0451 33.5276 35.2976 33.8253L35.0768 33.9139C31.3449 35.239 27.4053 35.8825 23.4457 35.8138C19.4859 35.8856 15.5457 35.242 11.8146 33.9139L11.5938 33.8253C10.8463 33.5276 10.1244 33.1692 9.43524 32.7538V36.7433C9.43524 39.7667 15.7113 42.2192 23.4457 42.2192Z" fill="#FFDA44"/>
<path d="M23.4457 13.7961C31.1835 13.7961 37.4562 11.3445 37.4562 8.32018C37.4562 5.2959 31.1835 2.84424 23.4457 2.84424C15.7079 2.84424 9.43524 5.2959 9.43524 8.32018C9.43524 11.3445 15.7079 13.7961 23.4457 13.7961Z" fill="#FFDA44"/>
</svg>
