<svg width="46" height="41" viewBox="0 0 46 41" fill="none" xmlns="http://www.w3.org/2000/svg">
<path d="M21.9888 15.1966C22.3583 14.6573 22.7612 14.5895 23.0882 14.5895C23.4151 14.5895 23.9583 14.6573 24.3281 15.1966C27.2278 19.1471 32.015 27.0193 35.5472 32.8282C37.8517 36.6135 39.6204 39.523 39.9846 39.8928C41.3466 41.2822 43.2151 40.4163 44.3011 38.8399C45.3695 37.2888 45.6652 36.199 45.6652 35.0371C45.6652 34.245 30.1781 5.67632 28.6193 3.298C27.1202 1.01144 26.6302 0.433472 24.0652 0.433472H22.1425C19.5831 0.433472 19.2136 1.01144 17.7131 3.298C16.1543 5.67632 0.665161 34.245 0.665161 35.0353C0.665161 36.199 0.962935 37.2888 2.03344 38.8399C3.11907 40.4163 4.98762 41.2822 6.34993 39.8911C6.71204 39.5209 8.48075 36.6135 10.7849 32.8264C14.317 27.0193 19.0888 19.1471 21.9906 15.1945L21.9888 15.1966Z" fill="black"/>
</svg>
